<svg version="1.1" id="Layer_1" xmlns="http://www.w3.org/2000/svg" xmlns:xlink="http://www.w3.org/1999/xlink" x="0px" y="0px"
	 width="100%" viewBox="0 0 242 212" enable-background="new 0 0 242 212" xml:space="preserve">
<path fill="#FCFFFF" opacity="1.000000" stroke="none" 
	d="
M155.000000,213.000000 
	C103.333336,213.000000 52.166672,213.000000 1.000007,213.000000 
	C1.000005,142.333344 1.000005,71.666679 1.000002,1.000016 
	C81.666656,1.000011 162.333313,1.000011 242.999969,1.000005 
	C242.999985,71.666649 242.999985,142.333298 243.000000,212.999969 
	C213.833328,213.000000 184.666672,213.000000 155.000000,213.000000 
M177.084457,98.020622 
	C177.084457,98.020622 177.267258,97.818832 177.213013,97.131317 
	C176.263412,95.653328 175.313828,94.175339 174.007935,92.993866 
	C174.007935,92.993866 174.362427,92.698776 174.265503,92.024536 
	C173.182846,90.341743 172.100204,88.658943 170.998764,86.998978 
	C170.998764,86.998978 171.024063,86.985481 170.971146,86.270683 
	C166.434998,78.747726 161.898834,71.224770 157.003403,63.788826 
	C157.003403,63.788826 157.366943,63.727352 157.279800,63.012463 
	C153.618515,56.921143 149.957245,50.829823 146.019073,44.968418 
	C146.019073,44.968418 146.311203,44.758320 146.228683,44.047333 
	C142.929611,38.603504 139.630539,33.159676 135.994263,27.953476 
	C135.994263,27.953476 136.340744,27.730902 136.242126,27.020893 
	C133.927917,23.260666 131.613708,19.500439 129.010498,15.928744 
	C129.010498,15.928744 129.314240,15.765285 129.241760,15.055648 
	C127.813660,12.071676 126.580528,8.222519 122.578087,8.831928 
	C120.279266,9.181946 118.235588,11.649797 116.250099,13.364633 
	C115.595520,13.929990 115.483192,15.123194 114.877068,16.295395 
	C114.877068,16.295395 114.817085,16.652668 114.218353,16.984089 
	C111.066498,22.606054 107.914635,28.228020 104.922646,33.898571 
	C104.922646,33.898571 104.792961,33.793201 104.192329,34.072853 
	C101.684029,38.631977 99.175728,43.191097 96.998398,47.853592 
	C96.998398,47.853592 96.677521,47.721508 96.086159,48.011162 
	C95.285858,49.598881 94.485550,51.186600 93.934494,52.900597 
	C93.934494,52.900597 93.710457,52.733620 93.124207,53.028873 
	C91.443359,56.025448 89.762505,59.022026 87.596260,62.485348 
	C84.952446,67.235130 82.308632,71.984909 80.009468,76.964447 
	C80.009468,76.964447 79.669571,76.724976 79.098534,77.044640 
	C78.308701,78.636986 77.518867,80.229332 76.919167,81.879997 
	C76.919167,81.879997 76.755257,81.767357 76.152878,82.045273 
	C72.652580,88.272278 69.152283,94.499290 66.017578,100.888641 
	C66.017578,100.888641 65.656982,100.710419 65.071106,101.007721 
	C60.595398,108.908249 56.119686,116.808784 51.962460,124.985489 
	C51.962460,124.985489 51.639359,124.707642 51.060421,125.016449 
	C50.286274,126.620857 49.512127,128.225266 48.917274,129.886414 
	C48.917274,129.886414 48.766273,129.774338 48.166878,130.052002 
	C45.641506,134.591263 43.116138,139.130524 40.693287,144.022781 
	C40.693287,144.022781 40.568672,143.674149 40.013828,143.980011 
	C39.765404,145.642090 39.516979,147.304184 39.268555,148.966263 
	C40.959835,149.118134 42.652271,149.386475 44.341877,149.369705 
	C45.115166,149.362030 45.867950,148.748520 46.655304,148.485367 
	C68.386292,141.222229 90.345871,136.372726 113.178085,143.061020 
	C118.421745,144.597076 123.409988,146.993484 128.629913,148.629929 
	C130.004349,149.060822 131.804993,148.132156 133.409927,147.827835 
	C133.069122,146.349808 133.162659,144.501740 132.289673,143.477142 
	C130.840240,141.776016 128.769745,140.604019 126.722290,138.913361 
	C126.722290,138.913361 126.361801,138.793182 126.093292,138.182693 
	C124.841568,137.331100 123.589851,136.479523 122.049614,135.846771 
	C122.049614,135.846771 122.311348,135.596512 122.017578,135.017899 
	C112.472214,127.607246 101.323380,123.638405 89.418968,120.533096 
	C91.251404,116.739151 92.807411,113.517532 94.006691,109.996826 
	C94.006691,109.996826 94.367111,110.292610 94.924522,109.953011 
	C97.053497,106.045067 99.182472,102.137115 101.028244,98.112015 
	C101.028244,98.112015 101.294312,98.264145 101.891144,97.981140 
	C103.938187,94.347824 105.985229,90.714508 108.557213,86.653839 
	C109.466553,84.835587 110.375893,83.017334 111.059692,81.098938 
	C111.059692,81.098938 111.260643,81.242172 111.861382,80.957573 
	C113.027496,78.723251 114.193611,76.488930 115.044144,74.207352 
	C115.044144,74.207352 115.351151,74.294434 115.932182,73.987770 
	C117.797905,71.221458 119.663620,68.455147 122.087914,64.860626 
	C126.105278,70.620407 129.449692,75.415375 132.919495,80.100716 
	C132.919495,80.100716 132.761627,80.153770 132.821960,80.875793 
	C136.139191,86.323669 139.456421,91.771545 142.938049,97.089828 
	C142.938049,97.089828 142.746078,97.173302 142.800293,97.868225 
	C143.783936,99.388580 144.767578,100.908943 145.803452,102.759140 
	C145.803452,102.759140 146.048538,102.985977 146.070404,103.649498 
	C146.919235,104.867966 147.768066,106.086426 148.992065,107.011780 
	C148.992065,107.011780 148.624466,107.314545 148.719666,108.021767 
	C152.379120,114.104050 156.038559,120.186333 159.977158,126.075226 
	C159.977158,126.075226 159.680496,126.240395 159.772247,126.950348 
	C160.637970,128.548126 161.460587,130.171051 162.376373,131.739624 
	C168.713287,142.593536 175.091156,153.423584 181.411285,164.287231 
	C184.981918,170.424789 184.234558,172.078339 177.278809,173.888306 
	C175.858017,174.258011 174.458115,174.708023 172.368668,175.076965 
	C171.932358,175.192642 171.496033,175.308334 170.143555,175.223618 
	C153.834778,176.281845 139.428635,170.617218 125.759766,162.519882 
	C116.324768,156.930649 106.221642,153.163086 95.392685,151.755875 
	C78.741913,149.592163 62.966793,152.206284 48.963524,162.006409 
	C48.963524,162.006409 48.714409,161.644180 48.024094,161.742493 
	C41.551510,167.702271 35.078926,173.662064 28.685995,179.866165 
	C28.685995,179.866165 28.552134,179.646805 27.959787,179.866470 
	C26.976206,181.246201 25.992624,182.625931 24.790068,184.179001 
	C24.790068,184.179001 24.759901,184.456650 24.131140,184.790359 
	C22.634840,187.202576 21.138540,189.614777 19.642241,192.026993 
	C20.106785,192.512527 20.571327,192.998077 21.035872,193.483612 
	C36.862537,185.327332 53.397614,179.410782 71.642670,176.887283 
	C72.077667,176.796295 72.512665,176.705307 73.869553,176.812943 
	C86.790848,175.877701 98.937111,178.669434 110.550972,184.260788 
	C119.082024,188.367950 127.736855,192.217972 136.268402,196.324142 
	C150.615021,203.229095 165.586548,206.011246 181.318146,202.908585 
	C192.404205,200.722107 203.263306,197.722168 212.036880,190.145523 
	C212.036880,190.145523 212.361374,190.392334 213.009308,190.264374 
	C214.169296,189.267303 215.329285,188.270233 216.846542,187.109879 
	C217.066788,186.943909 217.202332,186.725403 217.893585,186.146835 
	C221.869583,181.806015 222.962524,176.496124 220.495422,171.484787 
	C216.962082,164.307693 212.392258,157.640839 208.045197,150.926300 
	C208.045197,150.926300 208.288055,150.791092 208.218842,150.074066 
	C200.496704,137.030518 192.774567,123.986977 184.998077,110.992165 
	C184.998077,110.992165 185.065521,110.964806 185.042740,110.373451 
	C184.678665,109.942299 184.314575,109.511147 184.001083,109.022476 
	C184.001083,109.022476 183.926346,109.039238 183.881226,108.332108 
	C182.049713,105.449249 180.218185,102.566391 178.013657,99.867027 
	C178.013657,99.867027 178.386093,99.694855 178.319092,99.113228 
	C177.960648,98.675499 177.602188,98.237762 177.084457,98.020622 
z"/>
<path fill="#04ADD4" opacity="1.000000" stroke="none" 
	d="
M126.361801,138.793182 
	C126.361801,138.793182 126.722290,138.913361 126.883774,139.392807 
	C128.581238,142.012085 130.117218,144.151901 131.653198,146.291733 
	C131.436722,146.905823 131.220245,147.519928 131.003769,148.134018 
	C100.745232,131.936722 70.672020,138.256592 40.568672,148.543594 
	C40.568672,146.212692 40.568672,144.943420 40.568672,143.674149 
	C40.568672,143.674149 40.693287,144.022781 40.989544,143.803925 
	C43.779293,138.981506 46.272785,134.377914 48.766273,129.774338 
	C48.766273,129.774338 48.917274,129.886414 49.175823,129.779083 
	C50.169369,128.017044 50.904366,126.362343 51.639359,124.707642 
	C51.639359,124.707642 51.962460,124.985489 52.160812,124.820526 
	C54.407681,121.683640 56.736412,118.862854 58.439793,115.704781 
	C61.070259,110.827873 63.272892,105.720215 65.656982,100.710419 
	C65.656982,100.710419 66.017578,100.888641 66.193321,100.777115 
	C68.942848,96.529503 71.621429,92.453560 74.044739,88.231117 
	C75.198761,86.220306 75.866982,83.930679 76.755257,81.767357 
	C76.755257,81.767357 76.919167,81.879997 77.175262,81.780029 
	C78.177422,80.028366 78.923500,78.376671 79.669571,76.724976 
	C79.669571,76.724976 80.009468,76.964447 80.198807,76.812584 
	C83.273529,71.776962 86.158897,66.893196 89.302658,61.795975 
	C90.944191,58.632885 92.327324,55.683254 93.710457,52.733620 
	C93.710457,52.733620 93.934494,52.900597 94.167877,52.790382 
	C95.160011,51.027283 95.918770,49.374397 96.677521,47.721512 
	C96.677521,47.721508 96.998398,47.853592 97.187675,47.758060 
	C99.848953,43.039417 102.320953,38.416309 104.792961,33.793201 
	C104.792961,33.793201 104.922646,33.898571 105.190277,33.795162 
	C107.850319,30.088474 110.392525,26.572777 112.571976,22.844988 
	C113.661972,20.980614 114.089775,18.729088 114.817085,16.652668 
	C114.817085,16.652668 114.877068,16.295395 115.333748,16.103260 
	C121.705582,9.455661 121.699669,9.462037 127.969162,15.279269 
	C128.290863,15.577774 128.860199,15.609404 129.314240,15.765285 
	C129.314240,15.765285 129.010498,15.928744 129.076599,16.207758 
	C131.542053,20.234814 133.941391,23.982859 136.340744,27.730902 
	C136.340744,27.730902 135.994263,27.953476 136.076599,28.208084 
	C139.238693,34.084171 140.515350,40.828983 146.311203,44.758320 
	C146.311203,44.758320 146.019073,44.968418 146.087311,45.229042 
	C149.892670,51.568897 153.629807,57.648125 157.366943,63.727356 
	C157.366943,63.727352 157.003403,63.788826 157.090454,64.116882 
	C159.655136,69.012138 161.982803,73.669708 164.661728,78.115601 
	C166.533646,81.222191 168.886200,84.039154 171.024063,86.985481 
	C171.024063,86.985481 170.998764,86.998978 170.983093,87.366837 
	C172.099091,89.389389 173.230759,91.044083 174.362427,92.698776 
	C174.362427,92.698776 174.007935,92.993866 174.094040,93.205811 
	C175.209183,94.884773 176.238220,96.351807 177.267258,97.818832 
	C177.267258,97.818832 177.084457,98.020622 177.102325,98.243134 
	C177.542175,98.875381 177.964127,99.285118 178.386093,99.694855 
	C178.386093,99.694855 178.013657,99.867027 178.103943,100.147415 
	C180.104935,103.298279 182.015640,106.168762 183.926346,109.039238 
	C183.926346,109.039238 184.001083,109.022476 183.984924,109.350159 
	C184.334351,110.106834 184.699936,110.535820 185.065521,110.964798 
	C185.065521,110.964806 184.998077,110.992165 184.997101,111.346375 
	C185.200317,112.498871 185.235565,113.395332 185.633896,114.080811 
	C192.248322,125.463257 198.884964,136.833054 205.596893,148.158112 
	C206.215027,149.201065 207.378052,149.921112 208.288055,150.791092 
	C208.288055,150.791092 208.045197,150.926300 208.072449,151.224640 
	C210.696335,156.263962 213.269470,161.018051 215.895676,165.742599 
	C219.070282,171.453735 222.212646,177.115234 217.468674,183.570511 
	C216.984756,184.228943 217.305710,185.478882 217.253189,186.454346 
	C217.202332,186.725403 217.066788,186.943909 216.294830,187.121048 
	C214.615875,188.218918 213.488617,189.305618 212.361374,190.392334 
	C212.361374,190.392334 212.036880,190.145523 211.812805,190.179611 
	C208.028519,191.856659 204.445419,193.452026 200.912094,195.150894 
	C186.389954,202.133270 170.985840,203.977173 155.411743,201.040497 
	C147.268738,199.505051 139.478317,195.683731 131.773163,192.332611 
	C117.585747,186.162231 104.272552,177.621170 88.588081,175.583313 
	C83.505074,174.922882 78.168343,176.215210 72.947662,176.614319 
	C72.512665,176.705307 72.077667,176.796295 71.005394,176.591156 
	C60.482765,178.494675 50.493179,180.320206 40.751167,183.034348 
	C34.911671,184.661255 29.459080,187.676910 22.989889,190.426544 
	C23.777287,187.770813 24.268593,186.113724 24.759901,184.456650 
	C24.759901,184.456650 24.790068,184.179001 25.252872,184.060471 
	C26.661161,182.510223 27.606646,181.078522 28.552132,179.646805 
	C28.552134,179.646805 28.685995,179.866165 29.000919,179.764694 
	C35.782032,173.656876 42.248222,167.650528 48.714409,161.644180 
	C48.714409,161.644180 48.963524,162.006409 49.224319,161.936890 
	C58.445736,158.821106 66.835899,154.610947 76.663376,153.559143 
	C92.980736,151.812759 108.046707,154.540955 122.087440,162.523773 
	C133.976028,169.282974 146.032806,175.361862 159.841248,176.636292 
	C163.512177,176.975082 167.316589,175.867508 171.059723,175.424011 
	C171.496033,175.308334 171.932358,175.192642 172.962219,175.354401 
	C177.751526,175.678757 182.336411,175.500137 184.329971,171.429703 
	C185.274307,169.501556 184.132690,165.925781 182.894653,163.667435 
	C178.475021,155.605515 173.705078,147.729050 168.875641,139.900879 
	C165.995941,135.233047 162.757614,130.786438 159.680496,126.240395 
	C159.680496,126.240395 159.977158,126.075226 159.913605,125.796295 
	C156.108200,119.449760 152.366333,113.382149 148.624466,107.314545 
	C148.624466,107.314545 148.992065,107.011780 148.902405,106.800598 
	C147.891357,105.388268 146.969940,104.187119 146.048538,102.985977 
	C146.048538,102.985977 145.803452,102.759140 145.854523,102.209503 
	C144.852402,100.164345 143.799240,98.668823 142.746078,97.173302 
	C142.746078,97.173302 142.938049,97.089828 142.907349,96.780502 
	C139.504974,91.032043 136.133301,85.592911 132.761627,80.153770 
	C132.761627,80.153770 132.919495,80.100716 132.904449,79.780426 
	C130.438309,74.960800 128.119614,70.382256 125.491524,65.988792 
	C123.609108,62.841885 120.783493,63.256226 119.015175,65.815033 
	C117.298462,68.299164 116.533859,71.441269 115.351151,74.294434 
	C115.351151,74.294434 115.044144,74.207352 114.858429,74.302597 
	C113.535355,76.679291 112.398003,78.960732 111.260651,81.242172 
	C111.260643,81.242172 111.059692,81.098938 110.821564,81.205841 
	C109.701553,82.836960 108.819679,84.361183 107.657745,86.083054 
	C105.349892,90.275192 103.322098,94.269669 101.294312,98.264145 
	C101.294312,98.264145 101.028244,98.112015 100.813332,98.223938 
	C98.521324,102.321442 96.444221,106.307030 94.367111,110.292618 
	C94.367111,110.292610 94.006691,109.996826 93.827484,110.174431 
	C92.528900,111.751663 91.241783,113.049568 90.320221,114.569168 
	C86.978844,120.078896 87.569298,121.265457 93.595154,123.354645 
	C98.847710,125.175735 104.018494,127.258751 109.135010,129.438248 
	C113.592682,131.337097 117.924126,133.532272 122.311348,135.596512 
	C122.311348,135.596512 122.049614,135.846771 122.206741,136.101624 
	C123.696510,137.168716 125.029160,137.980957 126.361801,138.793182 
z"/>
<path fill="#34B3CE" opacity="1.000000" stroke="none" 
	d="
M73.408607,176.713623 
	C78.168343,176.215210 83.505074,174.922882 88.588081,175.583313 
	C104.272552,177.621170 117.585747,186.162231 131.773163,192.332611 
	C139.478317,195.683731 147.268738,199.505051 155.411743,201.040497 
	C170.985840,203.977173 186.389954,202.133270 200.912094,195.150894 
	C204.445419,193.452026 208.028519,191.856659 211.963074,190.317368 
	C203.263306,197.722168 192.404205,200.722107 181.318146,202.908585 
	C165.586548,206.011246 150.615021,203.229095 136.268402,196.324142 
	C127.736855,192.217972 119.082024,188.367950 110.550972,184.260788 
	C98.937111,178.669434 86.790848,175.877701 73.408607,176.713623 
z"/>
<path fill="#34B3CE" opacity="1.000000" stroke="none" 
	d="
M170.601639,175.323822 
	C167.316589,175.867508 163.512177,176.975082 159.841248,176.636292 
	C146.032806,175.361862 133.976028,169.282974 122.087440,162.523773 
	C108.046707,154.540955 92.980736,151.812759 76.663376,153.559143 
	C66.835899,154.610947 58.445736,158.821106 49.096180,161.756744 
	C62.966793,152.206284 78.741913,149.592163 95.392685,151.755875 
	C106.221642,153.163086 116.324768,156.930649 125.759766,162.519882 
	C139.428635,170.617218 153.834778,176.281845 170.601639,175.323822 
z"/>
<path fill="#37B2CE" opacity="1.000000" stroke="none" 
	d="
M40.291252,143.827087 
	C40.568672,144.943420 40.568672,146.212692 40.568672,148.543594 
	C70.672020,138.256592 100.745232,131.936722 131.003769,148.134018 
	C131.220245,147.519928 131.436722,146.905823 131.653198,146.291733 
	C130.117218,144.151901 128.581238,142.012085 127.003067,139.540695 
	C128.769745,140.604019 130.840240,141.776016 132.289673,143.477142 
	C133.162659,144.501740 133.069122,146.349808 133.409927,147.827835 
	C131.804993,148.132156 130.004349,149.060822 128.629913,148.629929 
	C123.409988,146.993484 118.421745,144.597076 113.178085,143.061020 
	C90.345871,136.372726 68.386292,141.222229 46.655304,148.485367 
	C45.867950,148.748520 45.115166,149.362030 44.341877,149.369705 
	C42.652271,149.386475 40.959835,149.118134 39.268555,148.966263 
	C39.516979,147.304184 39.765404,145.642090 40.291252,143.827087 
z"/>
<path fill="#34B3CE" opacity="1.000000" stroke="none" 
	d="
M159.726379,126.595367 
	C162.757614,130.786438 165.995941,135.233047 168.875641,139.900879 
	C173.705078,147.729050 178.475021,155.605515 182.894653,163.667435 
	C184.132690,165.925781 185.274307,169.501556 184.329971,171.429703 
	C182.336411,175.500137 177.751526,175.678757 173.302185,175.376434 
	C174.458115,174.708023 175.858017,174.258011 177.278809,173.888306 
	C184.234558,172.078339 184.981918,170.424789 181.411285,164.287231 
	C175.091156,153.423584 168.713287,142.593536 162.376373,131.739624 
	C161.460587,130.171051 160.637970,128.548126 159.726379,126.595367 
z"/>
<path fill="#34B3CE" opacity="1.000000" stroke="none" 
	d="
M24.445520,184.623505 
	C24.268593,186.113724 23.777287,187.770813 22.989889,190.426544 
	C29.459080,187.676910 34.911671,184.661255 40.751167,183.034348 
	C50.493179,180.320206 60.482765,178.494675 70.671982,176.543701 
	C53.397614,179.410782 36.862537,185.327332 21.035872,193.483612 
	C20.571327,192.998077 20.106785,192.512527 19.642241,192.026993 
	C21.138540,189.614777 22.634840,187.202576 24.445520,184.623505 
z"/>
<path fill="#34B3CE" opacity="1.000000" stroke="none" 
	d="
M208.253448,150.432587 
	C207.378052,149.921112 206.215027,149.201065 205.596893,148.158112 
	C198.884964,136.833054 192.248322,125.463257 185.633896,114.080811 
	C185.235565,113.395332 185.200317,112.498871 185.024277,111.322006 
	C192.774567,123.986977 200.496704,137.030518 208.253448,150.432587 
z"/>
<path fill="#37B2CE" opacity="1.000000" stroke="none" 
	d="
M122.164459,135.307205 
	C117.924126,133.532272 113.592682,131.337097 109.135010,129.438248 
	C104.018494,127.258751 98.847710,125.175735 93.595154,123.354645 
	C87.569298,121.265457 86.978844,120.078896 90.320221,114.569168 
	C91.241783,113.049568 92.528900,111.751663 94.005859,110.323975 
	C92.807411,113.517532 91.251404,116.739151 89.418968,120.533096 
	C101.323380,123.638405 112.472214,127.607246 122.164459,135.307205 
z"/>
<path fill="#34B3CE" opacity="1.000000" stroke="none" 
	d="
M217.573395,186.300598 
	C217.305710,185.478882 216.984756,184.228943 217.468674,183.570511 
	C222.212646,177.115234 219.070282,171.453735 215.895676,165.742599 
	C213.269470,161.018051 210.696335,156.263962 208.182343,151.139557 
	C212.392258,157.640839 216.962082,164.307693 220.495422,171.484787 
	C222.962524,176.496124 221.869583,181.806015 217.573395,186.300598 
z"/>
<path fill="#34B3CE" opacity="1.000000" stroke="none" 
	d="
M115.641663,74.141098 
	C116.533859,71.441269 117.298462,68.299164 119.015175,65.815033 
	C120.783493,63.256226 123.609108,62.841885 125.491524,65.988792 
	C128.119614,70.382256 130.438309,74.960800 132.841751,79.835236 
	C129.449692,75.415375 126.105278,70.620407 122.087914,64.860626 
	C119.663620,68.455147 117.797905,71.221458 115.641663,74.141098 
z"/>
<path fill="#34B3CE" opacity="1.000000" stroke="none" 
	d="
M48.369251,161.693329 
	C42.248222,167.650528 35.782032,173.656876 28.961094,179.642532 
	C35.078926,173.662064 41.551510,167.702271 48.369251,161.693329 
z"/>
<path fill="#37B2CE" opacity="1.000000" stroke="none" 
	d="
M65.364044,100.859070 
	C63.272892,105.720215 61.070259,110.827873 58.439793,115.704781 
	C56.736412,118.862854 54.407681,121.683640 52.001572,124.682434 
	C56.119686,116.808784 60.595398,108.908249 65.364044,100.859070 
z"/>
<path fill="#34B3CE" opacity="1.000000" stroke="none" 
	d="
M170.997604,86.628082 
	C168.886200,84.039154 166.533646,81.222191 164.661728,78.115601 
	C161.982803,73.669708 159.655136,69.012138 157.270081,64.073380 
	C161.898834,71.224770 166.434998,78.747726 170.997604,86.628082 
z"/>
<path fill="#34B3CE" opacity="1.000000" stroke="none" 
	d="
M129.278000,15.410467 
	C128.860199,15.609404 128.290863,15.577774 127.969162,15.279269 
	C121.699669,9.462037 121.705582,9.455661 115.456673,15.970220 
	C115.483192,15.123194 115.595520,13.929990 116.250099,13.364633 
	C118.235588,11.649797 120.279266,9.181946 122.578087,8.831928 
	C126.580528,8.222519 127.813660,12.071676 129.278000,15.410467 
z"/>
<path fill="#34B3CE" opacity="1.000000" stroke="none" 
	d="
M157.323364,63.369911 
	C153.629807,57.648125 149.892670,51.568897 146.225754,45.114090 
	C149.957245,50.829823 153.618515,56.921143 157.323364,63.369911 
z"/>
<path fill="#34B3CE" opacity="1.000000" stroke="none" 
	d="
M148.672058,107.668152 
	C152.366333,113.382149 156.108200,119.449760 159.774048,125.892990 
	C156.038559,120.186333 152.379120,114.104050 148.672058,107.668152 
z"/>
<path fill="#37B2CE" opacity="1.000000" stroke="none" 
	d="
M76.454071,81.906311 
	C75.866982,83.930679 75.198761,86.220306 74.044739,88.231117 
	C71.621429,92.453560 68.942848,96.529503 66.010529,100.695953 
	C69.152283,94.499290 72.652580,88.272278 76.454071,81.906311 
z"/>
<path fill="#34B3CE" opacity="1.000000" stroke="none" 
	d="
M114.517715,16.818378 
	C114.089775,18.729088 113.661972,20.980614 112.571976,22.844988 
	C110.392525,26.572777 107.850319,30.088474 105.110336,33.770866 
	C107.914635,28.228020 111.066498,22.606054 114.517715,16.818378 
z"/>
<path fill="#34B3CE" opacity="1.000000" stroke="none" 
	d="
M146.269943,44.402824 
	C140.515350,40.828983 139.238693,34.084171 136.245209,28.089268 
	C139.630539,33.159676 142.929611,38.603504 146.269943,44.402824 
z"/>
<path fill="#34B3CE" opacity="1.000000" stroke="none" 
	d="
M132.791794,80.514786 
	C136.133301,85.592911 139.504974,91.032043 142.825150,96.845299 
	C139.456421,91.771545 136.139191,86.323669 132.791794,80.514786 
z"/>
<path fill="#37B2CE" opacity="1.000000" stroke="none" 
	d="
M48.466576,129.913177 
	C46.272785,134.377914 43.779293,138.981506 40.938286,143.627441 
	C43.116138,139.130524 45.641506,134.591263 48.466576,129.913177 
z"/>
<path fill="#37B2CE" opacity="1.000000" stroke="none" 
	d="
M89.044273,62.009438 
	C86.158897,66.893196 83.273529,71.776962 80.026482,76.697708 
	C82.308632,71.984909 84.952446,67.235130 88.079559,62.247223 
	C88.562859,62.009098 89.044273,62.009438 89.044273,62.009438 
z"/>
<path fill="#34B3CE" opacity="1.000000" stroke="none" 
	d="
M104.492645,33.933029 
	C102.320953,38.416309 99.848953,43.039417 97.022186,47.706375 
	C99.175728,43.191097 101.684029,38.631977 104.492645,33.933029 
z"/>
<path fill="#34B3CE" opacity="1.000000" stroke="none" 
	d="
M136.291443,27.375896 
	C133.941391,23.982859 131.542053,20.234814 129.221100,16.113491 
	C131.613708,19.500439 133.927917,23.260666 136.291443,27.375896 
z"/>
<path fill="#37B2CE" opacity="1.000000" stroke="none" 
	d="
M94.645821,110.122818 
	C96.444221,106.307030 98.521324,102.321442 100.954926,98.282516 
	C99.182472,102.137115 97.053497,106.045067 94.645821,110.122818 
z"/>
<path fill="#37B2CE" opacity="1.000000" stroke="none" 
	d="
M101.592728,98.122643 
	C103.322098,94.269669 105.349892,90.275192 107.686035,86.382172 
	C108.007011,86.682823 108.019646,86.882011 108.032272,87.081192 
	C105.985229,90.714508 103.938187,94.347824 101.592728,98.122643 
z"/>
<path fill="#34B3CE" opacity="1.000000" stroke="none" 
	d="
M89.302658,61.795975 
	C89.044273,62.009438 88.562859,62.009098 88.322258,62.013847 
	C89.762505,59.022026 91.443359,56.025448 93.417328,52.881248 
	C92.327324,55.683254 90.944191,58.632885 89.302658,61.795975 
z"/>
<path fill="#34B3CE" opacity="1.000000" stroke="none" 
	d="
M183.903778,108.685669 
	C182.015640,106.168762 180.104935,103.298279 178.290436,100.055664 
	C180.218185,102.566391 182.049713,105.449249 183.903778,108.685669 
z"/>
<path fill="#34B3CE" opacity="1.000000" stroke="none" 
	d="
M111.561020,81.099876 
	C112.398003,78.960732 113.535355,76.679291 115.016220,74.326233 
	C114.193611,76.488930 113.027496,78.723251 111.561020,81.099876 
z"/>
<path fill="#34B3CE" opacity="1.000000" stroke="none" 
	d="
M174.313965,92.361656 
	C173.230759,91.044083 172.099091,89.389389 170.992493,87.355423 
	C172.100204,88.658943 173.182846,90.341743 174.313965,92.361656 
z"/>
<path fill="#34B3CE" opacity="1.000000" stroke="none" 
	d="
M108.294739,86.867516 
	C108.019646,86.882011 108.007011,86.682823 107.966095,86.184517 
	C108.819679,84.361183 109.701553,82.836960 110.934326,81.255905 
	C110.375893,83.017334 109.466553,84.835587 108.294739,86.867516 
z"/>
<path fill="#34B3CE" opacity="1.000000" stroke="none" 
	d="
M142.773193,97.520767 
	C143.799240,98.668823 144.852402,100.164345 145.828400,102.044579 
	C144.767578,100.908943 143.783936,99.388580 142.773193,97.520767 
z"/>
<path fill="#34B3CE" opacity="1.000000" stroke="none" 
	d="
M28.255959,179.756638 
	C27.606646,181.078522 26.661161,182.510223 25.362360,183.973801 
	C25.992624,182.625931 26.976206,181.246201 28.255959,179.756638 
z"/>
<path fill="#37B2CE" opacity="1.000000" stroke="none" 
	d="
M51.349892,124.862045 
	C50.904366,126.362343 50.169369,128.017044 49.086174,129.750717 
	C49.512127,128.225266 50.286274,126.620857 51.349892,124.862045 
z"/>
<path fill="#37B2CE" opacity="1.000000" stroke="none" 
	d="
M79.384048,76.884811 
	C78.923500,78.376671 78.177422,80.028366 77.080185,81.750870 
	C77.518867,80.229332 78.308701,78.636986 79.384048,76.884811 
z"/>
<path fill="#34B3CE" opacity="1.000000" stroke="none" 
	d="
M96.381844,47.866337 
	C95.918770,49.374397 95.160011,51.027283 94.043243,52.727242 
	C94.485550,51.186600 95.285858,49.598881 96.381844,47.866337 
z"/>
<path fill="#34B3CE" opacity="1.000000" stroke="none" 
	d="
M177.240143,97.475075 
	C176.238220,96.351807 175.209183,94.884773 174.272186,93.057556 
	C175.313828,94.175339 176.263412,95.653328 177.240143,97.475075 
z"/>
<path fill="#37B2CE" opacity="1.000000" stroke="none" 
	d="
M126.227547,138.487946 
	C125.029160,137.980957 123.696510,137.168716 122.350998,135.992218 
	C123.589851,136.479523 124.841568,137.331100 126.227547,138.487946 
z"/>
<path fill="#34B3CE" opacity="1.000000" stroke="none" 
	d="
M146.059479,103.317734 
	C146.969940,104.187119 147.891357,105.388268 148.714828,106.947151 
	C147.768066,106.086426 146.919235,104.867966 146.059479,103.317734 
z"/>
<path fill="#34B3CE" opacity="1.000000" stroke="none" 
	d="
M212.685333,190.328354 
	C213.488617,189.305618 214.615875,188.218918 216.116211,187.202698 
	C215.329285,188.270233 214.169296,189.267303 212.685333,190.328354 
z"/>
<path fill="#34B3CE" opacity="1.000000" stroke="none" 
	d="
M178.352600,99.404037 
	C177.964127,99.285118 177.542175,98.875381 177.181976,98.132835 
	C177.602188,98.237762 177.960648,98.675499 178.352600,99.404037 
z"/>
<path fill="#34B3CE" opacity="1.000000" stroke="none" 
	d="
M185.054138,110.669128 
	C184.699936,110.535820 184.334351,110.106834 183.959625,109.378922 
	C184.314575,109.511147 184.678665,109.942299 185.054138,110.669128 
z"/>
</svg>